Coordinates
version=1
nRows=32
nColumns=18
inDegrees=yes

Units are S.I. units (second, meters, Newtons, ...)
If the header above contains a line with 'inDegrees', this indicates whether rotational values are in degrees (yes) or radians (no).

endheader
time	ground_thorax_rot_x	ground_thorax_rot_y	ground_thorax_rot_z	ground_thorax_tx	ground_thorax_ty	ground_thorax_tz	clav_prot	clav_elev	scapula_abduction	scapula_elevation	scapula_upward_rot	scapula_winging	plane_elv	shoulder_elv	axial_rot	elbow_flexion	pro_sup
      3.00000000	      0.72322301	    -10.45820003	     -7.49985191	     -0.03586446	      0.02245929	      0.04483593	    -22.52656739	    -15.28139198	    -12.74515785	    -12.99527594	     15.07745072	     24.26723088	    -16.00000002	     22.26172414	     34.32577255	      0.00120871	      0.00000001
      3.02000000	      0.91605392	    -10.32759154	     -7.71093195	     -0.03552394	      0.02171696	      0.04516912	    -22.36718812	    -15.05430618	    -12.67748104	    -12.77874605	     14.91782826	     24.13058298	    -16.00000002	     21.65397897	     34.82390420	      0.00120871	      0.00000001
      3.04000000	      1.02701686	    -10.14509330	     -7.92139033	     -0.03537263	      0.02102732	      0.04534614	    -22.14258863	    -14.92099454	    -12.57802117	    -12.58986145	     14.59956811	     24.05451314	    -16.00000002	     21.27772385	     34.50876948	      0.00120871	      0.00000001
      3.06000000	      1.10870838	    -10.00684210	     -8.13074494	     -0.03517657	      0.02024247	      0.04556537	    -21.92921746	    -14.75817433	    -12.45406699	    -12.39953651	     14.36540548	     23.95277354	    -16.00000002	     20.81455049	     34.72489583	      0.00120871	      0.00000001
      3.08000000	      1.59145410	     -9.91326306	     -8.25868640	     -0.03484908	      0.01962527	      0.04609670	    -21.90946788	    -14.29730088	    -12.43509298	    -12.10989762	     14.59015417	     23.67241436	    -16.00000002	     20.18387916	     36.43052116	      0.00120871	      0.00000001
      3.10000000	      1.85938259	     -9.75810584	     -8.44118999	     -0.03476478	      0.01891439	      0.04632435	    -21.81258353	    -14.00332755	    -12.36229241	    -11.89462825	     14.62604873	     23.49277363	    -16.00000002	     19.73528387	     36.97122378	      0.00120871	      0.00000001
      3.12000000	      2.00115418	     -9.69858107	     -8.62952297	     -0.03471997	      0.01825810	      0.04657588	    -21.63897237	    -13.85277816	    -12.21448287	    -11.74815127	     14.52386515	     23.39045688	    -16.00000002	     19.40108536	     37.46162015	      0.00120871	      0.00000001
      3.14000000	      2.18043321	     -9.62717742	     -8.79110731	     -0.03476979	      0.01769270	      0.04678879	    -21.50170119	    -13.67946887	    -12.10530954	    -11.59548095	     14.45744903	     23.28080717	    -16.00000002	     19.11488432	     37.90209960	      0.00120871	      0.00000001
      3.16000000	      2.31622272	     -9.61297693	     -8.90707919	     -0.03489777	      0.01734014	      0.04709325	    -21.37936707	    -13.63122027	    -12.04384847	    -11.50922808	     14.28103597	     23.25550325	    -16.00000002	     18.99245349	     37.36432794	      0.00120871	      0.00000001
      3.18000000	      2.53867980	     -9.50626966	     -9.06913126	     -0.03512673	      0.01665471	      0.04704906	    -21.30121434	    -13.32455078	    -11.95250983	    -11.30681969	     14.40044407	     23.06614556	    -16.00000002	     18.63815081	     38.62800760	      0.00120871	      0.00000001
      3.20000000	      2.63234873	     -9.51169365	     -9.16730882	     -0.03546178	      0.01632626	      0.04717600	    -21.19407581	    -13.27184343	    -11.89765845	    -11.22498675	     14.25249991	     23.03860650	    -16.00000002	     18.55617991	     38.08087967	      0.00120871	      0.00000001
      3.22000000	      2.77954246	     -9.49372368	     -9.29810487	     -0.03578846	      0.01575053	      0.04717965	    -21.16691900	    -13.04464846	    -11.87353927	    -11.07716356	     14.34228790	     22.90798568	    -16.00000002	     18.25404948	     38.92766603	      0.00120871	      0.00000001
      3.24000000	      2.83704718	     -9.52413317	     -9.39612341	     -0.03630524	      0.01544273	      0.04714974	    -21.07601873	    -12.98393292	    -11.83125718	    -10.99591085	     14.21728292	     22.87740283	    -16.00000002	     18.20861533	     38.39147081	      0.00120871	      0.00000001
      3.26000000	      2.87440870	     -9.57604562	     -9.49676765	     -0.03687334	      0.01512043	      0.04704122	    -20.99401850	    -12.91537345	    -11.79778552	    -10.91192745	     14.10317528	     22.84366158	    -16.00000002	     18.17965484	     37.86889919	      0.00120871	      0.00000001
      3.28000000	      2.90195353	     -9.67765910	     -9.58770500	     -0.03747889	      0.01481412	      0.04694424	    -20.92911642	    -12.84411771	    -11.78253028	    -10.82993585	     14.00175858	     22.81105896	    -16.00000002	     18.15577981	     37.36574239	      0.00120871	      0.00000001
      3.30000000	      2.93739177	     -9.91833195	     -9.61734296	     -0.03799030	      0.01465848	      0.04716333	    -20.91423479	    -12.78550157	    -11.82896819	    -10.76302631	     13.91297839	     22.79522486	    -16.00000002	     18.08382231	     36.88703117	      0.00120871	      0.00000001
      3.32000000	      2.88251049	    -10.04380167	     -9.67619260	     -0.03863122	      0.01432888	      0.04712062	    -20.99275231	    -12.72935537	    -12.01086447	    -10.70249571	     13.82359392	     22.80483656	    -16.00000002	     17.97342052	     36.25367316	      0.00120871	      0.00000001
      3.34000000	      2.90506539	    -10.29828995	     -9.71142515	     -0.03926803	      0.01417629	      0.04719851	    -20.97860279	    -12.64716797	    -12.07146194	    -10.61509511	     13.72360529	     22.78072038	    -16.00000002	     17.98307691	     35.54876785	      0.00120871	      0.00000001
      3.36000000	      2.81434584	    -10.42171577	     -9.75748687	     -0.04008830	      0.01399809	      0.04712054	    -21.03076250	    -12.66113383	    -12.26920386	    -10.57164998	     13.50265171	     22.83902808	    -16.00000002	     18.09220137	     33.57700789	      0.00120871	      0.00000001
      3.38000000	      2.72573769	    -10.67153974	     -9.78353201	     -0.04086925	      0.01384826	      0.04713306	    -20.99730977	    -12.66077564	    -12.35398357	    -10.50934972	     13.26769129	     22.87120422	    -16.00000002	     18.23326325	     31.87889549	      0.00120871	      0.00000001
      3.40000000	      2.64359672	    -10.93203140	     -9.79801352	     -0.04166665	      0.01371479	      0.04718700	    -20.96857014	    -12.65698358	    -12.45069515	    -10.44235923	     13.02459709	     22.90443501	    -16.00000002	     18.40700843	     30.03894751	      0.00120871	      0.00000001
      3.42000000	      2.53828396	    -11.20741470	     -9.82469291	     -0.04246823	      0.01358096	      0.04723073	    -20.91572022	    -12.68798156	    -12.51752191	    -10.39254082	     12.75317381	     22.95238589	    -16.00000002	     18.63990583	     27.97391631	      0.00120871	      0.00000001
      3.44000000	      2.40795879	    -11.48561782	     -9.85094875	     -0.04328667	      0.01341567	      0.04725657	    -20.84472362	    -12.73581794	    -12.56118851	    -10.35002096	     12.46611259	     23.00574171	    -16.00000002	     18.90326327	     25.70335517	      0.00120871	      0.00000001
      3.46000000	      2.34507158	    -11.75381296	     -9.84499382	     -0.04410583	      0.01332155	      0.04735179	    -20.78983560	    -12.75375306	    -12.62024276	    -10.29313548	     12.20775542	     23.04465363	    -16.00000002	     19.19498066	     23.52956658	      0.00120871	      0.00000001
      3.48000000	      2.43429768	    -11.93224136	     -9.76827166	     -0.04494254	      0.01334903	      0.04737937	    -20.79044379	    -12.67461061	    -12.76197686	    -10.17819922	     11.99540494	     23.04666359	    -16.00000002	     19.56633566	     21.49716030	      0.00120871	      0.00000001
      3.50000000	      2.26855536	    -12.22969436	     -9.81226312	     -0.04574912	      0.01319022	      0.04743315	    -20.64708785	    -12.82038030	    -12.67419379	    -10.20257170	     11.70109684	     23.12582761	    -16.00000002	     19.90955550	     19.01882164	      0.00120871	      0.00000001
      3.52000000	      2.28730051	    -12.38772602	     -9.75265522	     -0.04659329	      0.01315365	      0.04739630	    -20.62750434	    -12.83669151	    -12.75606958	    -10.15863118	     11.49220365	     23.16462554	    -16.00000002	     20.29687190	     16.79178369	      0.00120871	      0.00000001
      3.54000000	      2.23692109	    -12.58808352	     -9.74775843	     -0.04741178	      0.01311355	      0.04736178	    -20.52427414	    -12.95405829	    -12.69284840	    -10.18323707	     11.27257324	     23.22830008	    -16.00000002	     20.68635591	     14.56253639	      0.00120871	      0.00000001
      3.56000000	      2.16387717	    -12.78019351	     -9.72816924	     -0.04821434	      0.01308650	      0.04727663	    -20.39370555	    -13.11606799	    -12.58874831	    -10.23416404	     11.03123050	     23.30852051	    -16.00000002	     21.11226112	     12.37673004	      0.00120871	      0.00000001
      3.58000000	      2.28281215	    -12.77600323	     -9.61909977	     -0.04906566	      0.01316887	      0.04705623	    -20.44394768	    -13.14005945	    -12.70760040	    -10.22907555	     10.93423273	     23.34988203	    -16.00000002	     21.51185350	     10.50012389	      0.00120871	      0.00000001
      3.60000000	      2.29523519	    -12.82618335	     -9.54700585	     -0.04990499	      0.01323007	      0.04681666	    -20.42196789	    -13.27378400	    -12.70134918	    -10.29731685	     10.81654400	     23.42530784	    -16.00000002	     21.89869045	      8.46230654	      0.00120871	      0.00000001
      3.62000000	      2.29976118	    -12.85385305	     -9.46711094	     -0.05074893	      0.01333110	      0.04647614	    -20.38636836	    -13.44945921	    -12.66435888	    -10.39596333	     10.69673982	     23.51702761	    -16.00000002	     22.30776911	      6.59289286	      0.00120871	      0.00000001
